<svg xmlns="http://www.w3.org/2000/svg" width="1110" height="418" viewBox="0 0 1110 418">
<rect width="100%" height="100%" fill="white"/>
<text x="28" y="36" font-family="Arial, Helvetica, sans-serif" font-size="20" fill="#0F172A">Five-Predicate Membership Diagram</text>
<rect x="24" y="56" width="1062" height="64" rx="12" ry="12" fill="#F8FAFC" stroke="#94A3B8"/>
<text x="40" y="95" font-family="Courier New, monospace" font-size="14" fill="#0F172A">((((country = AU AND status = ACTIVE) AND 50 &lt;= age &lt;= 80) AND segment IN {GOLD, SILVER}) AND NOT (risk = HIGH))</text>
<text x="28" y="150" font-family="Arial, Helvetica, sans-serif" font-size="18" fill="#0F172A">Predicate membership matrix</text>
<rect x="30" y="200" width="210" height="34" fill="#E2E8F0" stroke="#CBD5E1"/>
<text x="42" y="222" font-family="Arial, Helvetica, sans-serif" font-size="14" fill="#0F172A">record</text>
<rect x="240" y="200" width="130" height="34" fill="rgba(37,99,235,0.18)" stroke="#2563EB"/>
<text x="305.0" y="222" text-anchor="middle" font-family="Arial, Helvetica, sans-serif" font-size="13" fill="#0F172A">country = AU</text>
<rect x="370" y="200" width="130" height="34" fill="rgba(22,163,74,0.18)" stroke="#16A34A"/>
<text x="435.0" y="222" text-anchor="middle" font-family="Arial, Helvetica, sans-serif" font-size="13" fill="#0F172A">status = ACTIVE</text>
<rect x="500" y="200" width="130" height="34" fill="rgba(220,38,38,0.18)" stroke="#DC2626"/>
<text x="565.0" y="222" text-anchor="middle" font-family="Arial, Helvetica, sans-serif" font-size="13" fill="#0F172A">50 &lt;= age &lt;= 80</text>
<rect x="630" y="200" width="130" height="34" fill="rgba(124,58,237,0.18)" stroke="#7C3AED"/>
<text x="695.0" y="222" text-anchor="middle" font-family="Arial, Helvetica, sans-serif" font-size="13" fill="#0F172A">segment IN {GOLD, SILVER}</text>
<rect x="760" y="200" width="130" height="34" fill="rgba(245,158,11,0.18)" stroke="#F59E0B"/>
<text x="825.0" y="222" text-anchor="middle" font-family="Arial, Helvetica, sans-serif" font-size="13" fill="#0F172A">risk = HIGH</text>
<rect x="890" y="200" width="110" height="34" fill="#FEF3C7" stroke="#F59E0B"/>
<text x="945" y="222" text-anchor="middle" font-family="Arial, Helvetica, sans-serif" font-size="13" fill="#0F172A">result</text>
<rect x="30" y="234" width="210" height="34" fill="#FFFFFF" stroke="#E2E8F0"/>
<text x="42" y="256" font-family="Arial, Helvetica, sans-serif" font-size="14" fill="#0F172A">Asha</text>
<rect x="240" y="234" width="130" height="34" fill="#FFFFFF" stroke="#E2E8F0"/>
<text x="305.0" y="256" text-anchor="middle" font-family="Arial, Helvetica, sans-serif" font-size="18" fill="#2563EB">●</text>
<rect x="370" y="234" width="130" height="34" fill="#FFFFFF" stroke="#E2E8F0"/>
<text x="435.0" y="256" text-anchor="middle" font-family="Arial, Helvetica, sans-serif" font-size="18" fill="#16A34A">●</text>
<rect x="500" y="234" width="130" height="34" fill="#FFFFFF" stroke="#E2E8F0"/>
<text x="565.0" y="256" text-anchor="middle" font-family="Arial, Helvetica, sans-serif" font-size="18" fill="#DC2626">●</text>
<rect x="630" y="234" width="130" height="34" fill="#FFFFFF" stroke="#E2E8F0"/>
<text x="695.0" y="256" text-anchor="middle" font-family="Arial, Helvetica, sans-serif" font-size="18" fill="#7C3AED">●</text>
<rect x="760" y="234" width="130" height="34" fill="#FFFFFF" stroke="#E2E8F0"/>
<text x="825.0" y="256" text-anchor="middle" font-family="Arial, Helvetica, sans-serif" font-size="18" fill="#94A3B8">–</text>
<rect x="890" y="234" width="110" height="34" fill="#FFFBEB" stroke="#E2E8F0"/>
<text x="945" y="256" text-anchor="middle" font-family="Arial, Helvetica, sans-serif" font-size="18" fill="#D97706">✓</text>
<rect x="30" y="268" width="210" height="34" fill="#F8FAFC" stroke="#E2E8F0"/>
<text x="42" y="290" font-family="Arial, Helvetica, sans-serif" font-size="14" fill="#0F172A">Ben</text>
<rect x="240" y="268" width="130" height="34" fill="#F8FAFC" stroke="#E2E8F0"/>
<text x="305.0" y="290" text-anchor="middle" font-family="Arial, Helvetica, sans-serif" font-size="18" fill="#2563EB">●</text>
<rect x="370" y="268" width="130" height="34" fill="#F8FAFC" stroke="#E2E8F0"/>
<text x="435.0" y="290" text-anchor="middle" font-family="Arial, Helvetica, sans-serif" font-size="18" fill="#16A34A">●</text>
<rect x="500" y="268" width="130" height="34" fill="#F8FAFC" stroke="#E2E8F0"/>
<text x="565.0" y="290" text-anchor="middle" font-family="Arial, Helvetica, sans-serif" font-size="18" fill="#DC2626">●</text>
<rect x="630" y="268" width="130" height="34" fill="#F8FAFC" stroke="#E2E8F0"/>
<text x="695.0" y="290" text-anchor="middle" font-family="Arial, Helvetica, sans-serif" font-size="18" fill="#7C3AED">●</text>
<rect x="760" y="268" width="130" height="34" fill="#F8FAFC" stroke="#E2E8F0"/>
<text x="825.0" y="290" text-anchor="middle" font-family="Arial, Helvetica, sans-serif" font-size="18" fill="#F59E0B">●</text>
<rect x="890" y="268" width="110" height="34" fill="#F8FAFC" stroke="#E2E8F0"/>
<text x="945" y="290" text-anchor="middle" font-family="Arial, Helvetica, sans-serif" font-size="18" fill="#94A3B8">–</text>
<rect x="30" y="302" width="210" height="34" fill="#FFFFFF" stroke="#E2E8F0"/>
<text x="42" y="324" font-family="Arial, Helvetica, sans-serif" font-size="14" fill="#0F172A">Chen</text>
<rect x="240" y="302" width="130" height="34" fill="#FFFFFF" stroke="#E2E8F0"/>
<text x="305.0" y="324" text-anchor="middle" font-family="Arial, Helvetica, sans-serif" font-size="18" fill="#94A3B8">–</text>
<rect x="370" y="302" width="130" height="34" fill="#FFFFFF" stroke="#E2E8F0"/>
<text x="435.0" y="324" text-anchor="middle" font-family="Arial, Helvetica, sans-serif" font-size="18" fill="#16A34A">●</text>
<rect x="500" y="302" width="130" height="34" fill="#FFFFFF" stroke="#E2E8F0"/>
<text x="565.0" y="324" text-anchor="middle" font-family="Arial, Helvetica, sans-serif" font-size="18" fill="#DC2626">●</text>
<rect x="630" y="302" width="130" height="34" fill="#FFFFFF" stroke="#E2E8F0"/>
<text x="695.0" y="324" text-anchor="middle" font-family="Arial, Helvetica, sans-serif" font-size="18" fill="#7C3AED">●</text>
<rect x="760" y="302" width="130" height="34" fill="#FFFFFF" stroke="#E2E8F0"/>
<text x="825.0" y="324" text-anchor="middle" font-family="Arial, Helvetica, sans-serif" font-size="18" fill="#94A3B8">–</text>
<rect x="890" y="302" width="110" height="34" fill="#FFFFFF" stroke="#E2E8F0"/>
<text x="945" y="324" text-anchor="middle" font-family="Arial, Helvetica, sans-serif" font-size="18" fill="#94A3B8">–</text>
<rect x="30" y="336" width="210" height="34" fill="#F8FAFC" stroke="#E2E8F0"/>
<text x="42" y="358" font-family="Arial, Helvetica, sans-serif" font-size="14" fill="#0F172A">Devi</text>
<rect x="240" y="336" width="130" height="34" fill="#F8FAFC" stroke="#E2E8F0"/>
<text x="305.0" y="358" text-anchor="middle" font-family="Arial, Helvetica, sans-serif" font-size="18" fill="#2563EB">●</text>
<rect x="370" y="336" width="130" height="34" fill="#F8FAFC" stroke="#E2E8F0"/>
<text x="435.0" y="358" text-anchor="middle" font-family="Arial, Helvetica, sans-serif" font-size="18" fill="#94A3B8">–</text>
<rect x="500" y="336" width="130" height="34" fill="#F8FAFC" stroke="#E2E8F0"/>
<text x="565.0" y="358" text-anchor="middle" font-family="Arial, Helvetica, sans-serif" font-size="18" fill="#DC2626">●</text>
<rect x="630" y="336" width="130" height="34" fill="#F8FAFC" stroke="#E2E8F0"/>
<text x="695.0" y="358" text-anchor="middle" font-family="Arial, Helvetica, sans-serif" font-size="18" fill="#94A3B8">–</text>
<rect x="760" y="336" width="130" height="34" fill="#F8FAFC" stroke="#E2E8F0"/>
<text x="825.0" y="358" text-anchor="middle" font-family="Arial, Helvetica, sans-serif" font-size="18" fill="#94A3B8">–</text>
<rect x="890" y="336" width="110" height="34" fill="#F8FAFC" stroke="#E2E8F0"/>
<text x="945" y="358" text-anchor="middle" font-family="Arial, Helvetica, sans-serif" font-size="18" fill="#94A3B8">–</text>
<rect x="30" y="370" width="210" height="34" fill="#FFFFFF" stroke="#E2E8F0"/>
<text x="42" y="392" font-family="Arial, Helvetica, sans-serif" font-size="14" fill="#0F172A">Eli</text>
<rect x="240" y="370" width="130" height="34" fill="#FFFFFF" stroke="#E2E8F0"/>
<text x="305.0" y="392" text-anchor="middle" font-family="Arial, Helvetica, sans-serif" font-size="18" fill="#2563EB">●</text>
<rect x="370" y="370" width="130" height="34" fill="#FFFFFF" stroke="#E2E8F0"/>
<text x="435.0" y="392" text-anchor="middle" font-family="Arial, Helvetica, sans-serif" font-size="18" fill="#16A34A">●</text>
<rect x="500" y="370" width="130" height="34" fill="#FFFFFF" stroke="#E2E8F0"/>
<text x="565.0" y="392" text-anchor="middle" font-family="Arial, Helvetica, sans-serif" font-size="18" fill="#DC2626">●</text>
<rect x="630" y="370" width="130" height="34" fill="#FFFFFF" stroke="#E2E8F0"/>
<text x="695.0" y="392" text-anchor="middle" font-family="Arial, Helvetica, sans-serif" font-size="18" fill="#7C3AED">●</text>
<rect x="760" y="370" width="130" height="34" fill="#FFFFFF" stroke="#E2E8F0"/>
<text x="825.0" y="392" text-anchor="middle" font-family="Arial, Helvetica, sans-serif" font-size="18" fill="#94A3B8">–</text>
<rect x="890" y="370" width="110" height="34" fill="#FFFBEB" stroke="#E2E8F0"/>
<text x="945" y="392" text-anchor="middle" font-family="Arial, Helvetica, sans-serif" font-size="18" fill="#D97706">✓</text>
</svg>